<svg xmlns="http://www.w3.org/2000/svg" width="222" height="45" viewBox="0 0 222 45">
  <path fill-rule="evenodd" d="M204.3975,0 L204.3975,5.186 L186.2335,5.186 L186.2335,44.09 L181.0485,44.09 L181.0485,5.186 L162.8835,5.186 L162.8835,0 L204.3975,0 Z M137.5409,0 C141.1109,0 144.1719,1.266 146.7259,3.796 C149.2549,6.326 150.5209,9.377 150.5209,12.946 L150.5209,44.09 L145.3359,44.09 L145.3359,23.35 L114.1919,23.35 L114.1919,44.09 L109.0069,44.09 L109.0069,12.946 C109.0069,9.377 110.2729,6.326 112.8029,3.796 C115.3329,1.266 118.3949,0 121.9859,0 L137.5409,0 Z M145.3359,18.165 L145.3359,12.946 C145.3359,10.8 144.5669,8.97 143.0309,7.456 C141.5179,5.942 139.6879,5.186 137.5409,5.186 L121.9859,5.186 C119.8399,5.186 117.9989,5.942 116.4629,7.456 C114.9479,8.97 114.1919,10.8 114.1919,12.946 L114.1919,18.165 L145.3359,18.165 Z M96.6445,0 L78.0745,44.09 L72.4485,44.09 L53.8765,0 L59.5025,0 L75.2605,37.414 L91.0195,0 L96.6445,0 Z M12.9795,5.1855 C10.8335,5.1855 8.9925,5.9425 7.4565,7.4565 C5.9415,8.9695 5.1855,10.7995 5.1855,12.9465 L5.1855,18.1645 L41.5135,18.1645 L41.5135,23.3495 L5.1855,23.3495 L5.1855,38.9055 L41.5135,38.9055 L41.5135,44.0895 L0.0005,44.0895 L0.0005,12.9465 C0.0005,9.3765 1.2655,6.3265 3.7955,3.7955 C6.3265,1.2655 9.3875,-0.0005 12.9795,-0.0005 L41.5135,-0.0005 L41.5135,5.1855 L12.9795,5.1855 Z M216.76,44.0898 L216.76,-0.0002 L221.946,-0.0002 L221.946,44.0898 L216.76,44.0898 Z"/>
</svg>
